# xmcd
#
# Track frame offsets:
# 150
# 24200
# 43310
# 67122
# 79245
# 96122
# 112442
# 128850
# 143787
# 158935
# 176057
# 192137
#
# Disc length: 2899 seconds
#
# Revision: 0
# Processed by: cddbd v1.5.1PL0 Copyright (c) Steve Scherf et al.
# Submitted via: Audion 3.0.2 (http://www.panic.com/audion/)
#
DISCID=ae0b510c
DTITLE=Papa John Creach - The Best Of
DYEAR=1900
DGENRE=
TTITLE0=Filthy Funky
TTITLE1=I'm The Fiddle Man
TTITLE2=Stardust
TTITLE3=The Rocker
TTITLE4=Fiddlin' Around
TTITLE5=Solitude
TTITLE6=Travelin' On
TTITLE7=J. V. And Me
TTITLE8=Old Man River
TTITLE9=Straight Ahead
TTITLE10=Orange Blossom Special
TTITLE11=Joyce (A Tom Moulton Remix)
EXTD=
EXTT0=
EXTT1=
EXTT2=
EXTT3=
EXTT4=
EXTT5=
EXTT6=
EXTT7=
EXTT8=
EXTT9=
EXTT10=
EXTT11=
PLAYORDER=
